<svg id="图层_1" data-name="图层 1" xmlns="http://www.w3.org/2000/svg" viewBox="0 0 329.78 199.45"><defs><style>.cls-1{font-size:100px;font-family:Arial-BoldMT, Arial;font-weight:700;}</style></defs><title>未标题-3</title><path d="M45.53,90.5V18.92H218V31H60V46.9H217.92V59H60V78.44H218V90.5Z" transform="translate(-38.25 -17.7)"/><path d="M231.5,90.5V18.92h14.06l29.3,47.8V18.92h13.43V90.5h-14.5L244.93,43.82V90.5Z" transform="translate(-38.25 -17.7)"/><path d="M336.88,64.18V52.12H368V80.64q-4.54,4.39-13.16,7.74a47.91,47.91,0,0,1-17.46,3.34A39.18,39.18,0,0,1,317.83,87a30,30,0,0,1-12.55-13.48,43.55,43.55,0,0,1-4.2-19.07,41.2,41.2,0,0,1,4.69-19.87,31.57,31.57,0,0,1,13.72-13.33q6.88-3.56,17.14-3.56,13.33,0,20.83,5.59a25.25,25.25,0,0,1,9.64,15.45l-14.36,2.69a15.16,15.16,0,0,0-5.69-8.33,17.2,17.2,0,0,0-10.42-3.05q-9.47,0-15.06,6T316,53.88q0,12.74,5.66,19.12a18.91,18.91,0,0,0,14.84,6.37,24.88,24.88,0,0,0,9.11-1.78,31.22,31.22,0,0,0,7.84-4.32V64.18Z" transform="translate(-38.25 -17.7)"/><text class="cls-1" transform="translate(0 161.8)">LIS</text><path d="M203.57,179.5V107.92H218v28.17H353.35V107.92H367.8V179.5H353.35V148.2H218v31.3Z" transform="translate(-38.25 -17.7)"/></svg>